<svg xmlns="http://www.w3.org/2000/svg" viewBox="0 0 180 130" role="img" aria-labelledby="title desc">
  <title id="title">ClinovaAI monogram</title>
  <desc id="desc">Gold ClinovaAI monogram mark on a transparent background.</desc>
  <defs>
    <linearGradient id="gold" x1="18" y1="14" x2="151" y2="119" gradientUnits="userSpaceOnUse">
      <stop offset="0" stop-color="#F0D9A1"/>
      <stop offset="0.35" stop-color="#C7A66B"/>
      <stop offset="0.7" stop-color="#E7CD91"/>
      <stop offset="1" stop-color="#A9864F"/>
    </linearGradient>
  </defs>
  <path
    d="M126.2 33.1c-27.8-18.7-66.1-11.4-83 18.6-7 12.5-15.4 18.7-29 17.5-13.7-1.2-18.1 20.7-4.7 25.2 12.2 4 25.1 1 38-7.4 18.8 31.7 59.1 39.8 87.3 17.4l-17.4-17.8c-17 13.2-42.5 7.8-52.2-11.6l40.8-40.7 20.2-1.2Z"
    fill="none"
    stroke="url(#gold)"
    stroke-width="11.5"
    stroke-linejoin="miter"
    stroke-linecap="butt"
  />
  <path
    d="M109.1 25.4 58.2 76.8l25.5 25.5"
    fill="none"
    stroke="url(#gold)"
    stroke-width="11.5"
    stroke-linejoin="miter"
    stroke-linecap="butt"
  />
  <path
    d="M130.7 32.5 153 53.8l-18.9 18.8-22.6-22.1"
    fill="none"
    stroke="url(#gold)"
    stroke-width="11.5"
    stroke-linejoin="miter"
    stroke-linecap="butt"
  />
  <path
    d="M117.3 86.6 151 104.2l-18.2 18.8-35.1-17.8"
    fill="none"
    stroke="url(#gold)"
    stroke-width="11.5"
    stroke-linejoin="miter"
    stroke-linecap="butt"
  />
</svg>
